<?xml version="1.0" encoding="utf-8"?>
<!-- Generator: Adobe Illustrator 24.0.0, SVG Export Plug-In . SVG Version: 6.00 Build 0)  -->
<svg version="1.1" id="Layer_1" xmlns="http://www.w3.org/2000/svg" xmlns:xlink="http://www.w3.org/1999/xlink" x="0px" y="0px"
	 viewBox="0 0 250 250" style="enable-background:new 0 0 250 250;" xml:space="preserve">
<style type="text/css">
	.st0{fill:#C0D330;}
</style>
<g>
	<path class="st0" d="M56.2,217.5c20,1.3,38.9-8.5,49.5-25.4c12.7-20.4,11.2-48.8-5.1-66.8C95.9,120,90,115.6,83.8,112
		c-3.5-2-7.3-4-11.1-5.5c-2.3-0.9-4.6-1.6-6.9-2.4c-1.8-0.6-4.6-1.2-5.5-3.1c-1-2,0.2-4.2,1.1-6.1c1.8-3.9,4.1-7.6,6.7-11
		c3.8-5.1,8.2-9.8,12.7-14.3c3.2-3.2,11.1-10.5,17.5-16c5.1-4.4,5.7-12.2,1.2-17.2c-4.1-4.7-11.1-5.5-16.2-1.9
		c-23.3,16.7-45.4,36.2-61.8,60C5.8,117.5-5.7,146.3,3,174C10.6,197.8,30.9,215.9,56.2,217.5z"/>
</g>
<g>
	<path class="st0" d="M192,217.5c20,1.3,38.9-8.5,49.5-25.4c12.7-20.4,11.2-48.8-5.1-66.8c-4.8-5.3-10.6-9.7-16.9-13.3
		c-3.5-2-7.3-4-11.1-5.5c-2.3-0.9-4.6-1.6-6.9-2.4c-1.8-0.6-4.6-1.2-5.5-3.1c-1-2,0.2-4.2,1.1-6.1c1.8-3.9,4.1-7.6,6.7-11
		c3.8-5.1,8.2-9.8,12.7-14.3c3.2-3.2,11.1-10.5,17.5-16c5.1-4.4,5.7-12.2,1.2-17.2c-4.1-4.7-11.1-5.5-16.2-1.9
		c-23.3,16.7-45.4,36.2-61.8,60c-15.7,22.9-27.2,51.7-18.4,79.4C146.3,197.8,166.7,215.9,192,217.5z"/>
</g>
</svg>
